<svg width="256" height="256" viewBox="0 0 256 256" fill="none" xmlns="http://www.w3.org/2000/svg">
<g clip-path="url(#clip0_183_119)">
<rect width="256" height="256" rx="25" fill="#F7BF08"/>
<rect width="256" height="256" rx="25" fill="url(#paint0_linear_183_119)"/>
<path d="M208.566 226.877H113.352L69.4063 182.932L135.324 29.1232L237.863 160.959L208.566 226.877Z" fill="white" fill-opacity="0.55"/>
<path d="M84.0547 36.4474L18.1368 182.932L54.7579 226.877H208.566L237.863 160.959L84.0547 36.4474Z" fill="white" fill-opacity="0.49"/>
<path d="M24.87 226.877C23.22 226.877 22.34 225.447 23 224.017L57.43 149.987C57.76 149.327 58.53 148.777 59.3 148.777H60.4C61.17 148.777 61.94 149.327 62.27 149.987L96.7 224.017C97.36 225.447 96.48 226.877 94.83 226.877H82.62C80.64 226.877 79.76 226.217 78.77 224.127L74.81 215.437H44.89L40.93 224.237C40.38 225.557 39.17 226.877 36.97 226.877H24.87ZM51.49 200.477H68.21L59.85 182.327H59.74L51.49 200.477ZM110.881 224.787V151.967C110.881 150.867 111.761 149.877 112.971 149.877H158.511C159.721 149.877 160.601 150.867 160.601 151.967V163.957C160.601 165.057 159.721 166.047 158.511 166.047H128.041V179.687H153.121C154.221 179.687 155.211 180.677 155.211 181.777V193.767C155.211 194.977 154.221 195.857 153.121 195.857H128.041V210.707H158.511C159.721 210.707 160.601 211.697 160.601 212.797V224.787C160.601 225.887 159.721 226.877 158.511 226.877H112.971C111.761 226.877 110.881 225.887 110.881 224.787ZM201.865 227.977C187.565 227.977 179.645 222.037 177.115 219.507C176.235 218.627 175.905 217.637 176.675 216.207L181.735 207.297C182.615 205.867 184.375 205.867 185.475 206.637C188.555 208.727 194.165 212.687 201.095 212.687C205.495 212.687 208.685 209.937 208.685 206.087C208.685 201.467 204.615 198.497 197.355 194.977C186.685 189.807 176.015 183.867 176.015 170.667C176.015 159.777 184.485 148.777 201.425 148.777C212.865 148.777 221.665 154.607 224.965 157.027C226.285 157.797 226.065 159.777 225.625 160.547L220.015 169.017C219.245 170.227 217.375 171.107 215.175 169.787C212.645 168.027 206.155 163.847 200.325 163.847C195.705 163.847 193.615 166.707 193.615 169.897C193.615 173.527 197.905 176.387 205.605 180.127C215.285 184.857 227.825 190.247 227.825 205.207C227.825 216.537 218.035 227.977 201.865 227.977Z" fill="#21204A"/>
</g>
<defs>
<linearGradient id="paint0_linear_183_119" x1="128" y1="0" x2="128" y2="256" gradientUnits="userSpaceOnUse">
<stop offset="0.5" stop-color="#F8C521"/>
<stop offset="1" stop-color="#F7BF08"/>
</linearGradient>
<clipPath id="clip0_183_119">
<rect width="256" height="256" rx="25" fill="white"/>
</clipPath>
</defs>
</svg>
