<svg width="1280" height="640" viewBox="0 0 1280 640" fill="none" xmlns="http://www.w3.org/2000/svg">
<rect width="1280" height="640" fill="#F8C521"/>
<path d="M232.687 431.884C232.687 425.484 237.839 420.332 244.239 420.332C247.471 420.332 249.807 421.452 251.983 423.308C252.239 423.564 252.271 423.948 252.015 424.204C251.727 424.492 251.375 424.812 251.119 425.1C250.831 425.42 250.639 425.388 250.287 425.068C248.655 423.628 246.351 422.572 244.207 422.572C239.151 422.572 235.311 426.796 235.311 431.756C235.311 436.684 239.151 441.004 244.207 441.004C247.727 441.004 249.967 439.66 249.967 439.66V435.18H246.287C245.935 435.18 245.679 434.924 245.679 434.604V433.42C245.679 433.068 245.935 432.812 246.287 432.812H251.823C252.143 432.812 252.399 433.1 252.399 433.42V440.748C252.399 440.908 252.271 441.164 252.143 441.26C252.143 441.26 248.879 443.372 244.239 443.372C237.839 443.372 232.687 438.284 232.687 431.884ZM258.369 442.348V428.972C258.369 428.62 258.689 428.268 259.073 428.268H259.585C259.873 428.268 260.129 428.428 260.225 428.78L260.481 429.836C260.481 429.836 261.953 427.948 265.025 427.948C266.145 427.948 267.969 428.108 267.617 429.132L267.201 430.284C267.041 430.764 266.689 430.796 266.337 430.636C265.985 430.476 265.441 430.22 264.737 430.22C261.889 430.22 260.737 432.108 260.737 432.108V442.348C260.737 442.732 260.385 443.052 260.033 443.052H259.073C258.689 443.052 258.369 442.732 258.369 442.348ZM270.916 435.66C270.916 431.5 273.604 427.948 278.084 427.948C281.956 427.948 284.772 430.796 284.772 434.668C284.772 434.924 284.74 435.308 284.708 435.564C284.676 435.948 284.356 436.204 284.036 436.204H273.284C273.348 438.668 275.428 441.26 278.116 441.26C280.068 441.26 281.284 440.588 282.116 440.044C282.628 439.692 282.852 439.564 283.236 440.14L283.62 440.684C283.908 441.132 284.036 441.292 283.492 441.708C282.596 442.412 280.644 443.404 278.084 443.404C273.604 443.404 270.916 439.884 270.916 435.66ZM273.316 434.316H282.404C282.34 432.14 280.612 430.092 278.084 430.092C275.588 430.092 273.604 432.012 273.316 434.316ZM289.105 438.572C289.105 435.756 291.217 433.676 295.025 433.676C296.593 433.676 298.193 434.156 298.193 434.156C298.225 431.436 297.873 430.092 295.761 430.092C293.745 430.092 292.049 430.732 291.377 430.956C290.993 431.116 290.801 430.924 290.673 430.572L290.353 429.708C290.225 429.26 290.449 429.068 290.801 428.908C291.537 428.588 293.457 427.948 295.889 427.948C299.665 427.948 300.465 429.804 300.465 434.156V442.348C300.465 442.732 300.145 443.052 299.761 443.052H299.153C298.769 443.052 298.641 442.828 298.545 442.508L298.257 441.516C297.489 442.284 295.953 443.404 293.681 443.404C291.089 443.404 289.105 441.548 289.105 438.572ZM291.441 438.572C291.441 440.076 292.465 441.26 294.097 441.26C295.921 441.26 297.521 440.236 298.161 439.276V436.268C297.681 436.012 296.497 435.692 295.025 435.692C292.977 435.692 291.441 436.684 291.441 438.572ZM307.879 430.316H305.927C305.479 430.316 305.191 429.996 305.191 429.612V428.972C305.191 428.556 305.479 428.268 305.927 428.268H307.879V424.172C307.879 423.788 308.231 423.5 308.583 423.468L309.575 423.404C309.959 423.372 310.247 423.724 310.247 424.108V428.268H314.599C315.015 428.268 315.335 428.556 315.335 428.972V429.612C315.335 429.996 315.015 430.316 314.599 430.316H310.247V439.148C310.247 440.684 310.727 441.26 311.559 441.26C312.935 441.26 313.863 440.684 314.471 440.3C315.047 439.948 315.239 440.236 315.399 440.588L315.687 441.26C315.879 441.74 315.815 441.964 315.431 442.22C314.791 442.668 313.255 443.404 311.271 443.404C308.455 443.404 307.879 441.612 307.879 439.308V430.316ZM329.004 435.66C329.004 431.436 331.884 427.948 335.916 427.948C338.572 427.948 340.332 429.452 340.332 429.452L340.556 428.78C340.716 428.492 340.876 428.268 341.26 428.268H341.708C342.092 428.268 342.444 428.62 342.444 428.972V449.964C342.444 450.348 342.092 450.668 341.708 450.668H340.812C340.428 450.668 340.108 450.348 340.108 449.964V442.092C340.108 442.092 338.444 443.404 336.012 443.404C331.948 443.404 329.004 439.98 329.004 435.66ZM331.404 435.628C331.404 438.828 333.516 441.228 336.332 441.228C338.38 441.228 340.108 440.012 340.108 440.012V431.916C340.108 431.916 338.572 430.124 336.172 430.124C333.228 430.124 331.404 432.748 331.404 435.628ZM348.872 436.94V428.972C348.872 428.62 349.16 428.268 349.576 428.268H350.536C350.92 428.268 351.24 428.62 351.24 428.972V436.972C351.24 439.916 352.2 441.26 354.344 441.26C356.552 441.26 357.864 439.884 358.536 439.116V428.972C358.536 428.62 358.824 428.268 359.208 428.268H360.2C360.552 428.268 360.872 428.62 360.872 428.972V442.348C360.872 442.732 360.552 443.052 360.2 443.052H359.688C359.272 443.052 359.112 442.796 359.016 442.412L358.728 441.484C358.184 442.06 356.808 443.404 354.152 443.404C349.896 443.404 348.872 440.844 348.872 436.94ZM366.323 438.572C366.323 435.756 368.435 433.676 372.243 433.676C373.811 433.676 375.411 434.156 375.411 434.156C375.443 431.436 375.091 430.092 372.979 430.092C370.963 430.092 369.267 430.732 368.595 430.956C368.211 431.116 368.019 430.924 367.891 430.572L367.571 429.708C367.443 429.26 367.667 429.068 368.019 428.908C368.755 428.588 370.675 427.948 373.107 427.948C376.883 427.948 377.683 429.804 377.683 434.156V442.348C377.683 442.732 377.363 443.052 376.979 443.052H376.371C375.987 443.052 375.859 442.828 375.763 442.508L375.475 441.516C374.707 442.284 373.171 443.404 370.899 443.404C368.307 443.404 366.323 441.548 366.323 438.572ZM368.659 438.572C368.659 440.076 369.683 441.26 371.315 441.26C373.139 441.26 374.739 440.236 375.379 439.276V436.268C374.899 436.012 373.715 435.692 372.243 435.692C370.195 435.692 368.659 436.684 368.659 438.572ZM384.298 442.348V421.356C384.298 421.004 384.618 420.652 385.002 420.652H385.962C386.314 420.652 386.666 421.004 386.666 421.356V442.348C386.666 442.732 386.314 443.052 385.962 443.052H385.002C384.618 443.052 384.298 442.732 384.298 442.348ZM394.545 424.46C393.585 424.46 392.817 423.66 392.817 422.732C392.817 421.708 393.585 420.94 394.545 420.94C395.537 420.94 396.305 421.708 396.305 422.732C396.305 423.66 395.537 424.46 394.545 424.46ZM393.425 442.348V428.972C393.425 428.62 393.745 428.268 394.129 428.268H395.089C395.441 428.268 395.793 428.62 395.793 428.972V442.348C395.793 442.732 395.441 443.052 395.089 443.052H394.129C393.745 443.052 393.425 442.732 393.425 442.348ZM403.36 430.316H401.408C400.96 430.316 400.672 429.996 400.672 429.612V428.972C400.672 428.556 400.96 428.268 401.408 428.268H403.36V424.172C403.36 423.788 403.712 423.5 404.064 423.468L405.056 423.404C405.44 423.372 405.728 423.724 405.728 424.108V428.268H410.08C410.496 428.268 410.816 428.556 410.816 428.972V429.612C410.816 429.996 410.496 430.316 410.08 430.316H405.728V439.148C405.728 440.684 406.208 441.26 407.04 441.26C408.416 441.26 409.344 440.684 409.952 440.3C410.528 439.948 410.72 440.236 410.88 440.588L411.168 441.26C411.36 441.74 411.296 441.964 410.912 442.22C410.272 442.668 408.736 443.404 406.752 443.404C403.936 443.404 403.36 441.612 403.36 439.308V430.316ZM419.965 443.02L414.557 429.068C414.365 428.588 414.557 428.268 415.133 428.268H416.477C416.765 428.268 417.021 428.428 417.117 428.684L421.309 440.428H421.373L426.365 428.684C426.461 428.428 426.717 428.268 427.005 428.268H428.189C428.765 428.268 428.989 428.62 428.765 429.1L419.517 450.22C419.421 450.444 419.133 450.668 418.877 450.668H417.725C417.149 450.668 416.893 450.284 417.117 449.772L419.965 443.02ZM441.272 435.628C441.272 431.468 444.6 427.948 448.696 427.948C452.792 427.948 456.12 431.468 456.12 435.628C456.12 439.852 452.792 443.404 448.696 443.404C444.6 443.404 441.272 439.852 441.272 435.628ZM443.608 435.628C443.608 438.7 445.784 441.26 448.696 441.26C451.608 441.26 453.752 438.7 453.752 435.628C453.752 432.62 451.608 430.092 448.696 430.092C445.784 430.092 443.608 432.62 443.608 435.628ZM462.801 442.348V430.316H460.433C460.049 430.316 459.729 429.996 459.729 429.612V428.972C459.729 428.556 460.049 428.268 460.433 428.268H462.801V425.932C462.801 422.252 464.529 420.332 467.729 420.332C469.745 420.332 471.121 421.228 471.793 421.868C472.017 422.092 472.081 422.476 471.921 422.7L471.313 423.468C471.057 423.82 470.801 423.788 470.385 423.5C469.585 422.924 468.913 422.476 467.665 422.476C465.969 422.476 465.169 423.724 465.169 425.932V428.268H469.553C469.937 428.268 470.257 428.556 470.257 428.972V429.612C470.257 429.996 469.937 430.316 469.553 430.316H465.169V442.348C465.169 442.732 464.849 443.052 464.465 443.052H463.505C463.121 443.052 462.801 442.732 462.801 442.348ZM484.473 442.348V421.356C484.473 421.004 484.793 420.652 485.177 420.652H486.137C486.489 420.652 486.841 421.004 486.841 421.356V442.348C486.841 442.732 486.489 443.052 486.137 443.052H485.177C484.793 443.052 484.473 442.732 484.473 442.348ZM494.72 424.46C493.76 424.46 492.992 423.66 492.992 422.732C492.992 421.708 493.76 420.94 494.72 420.94C495.712 420.94 496.48 421.708 496.48 422.732C496.48 423.66 495.712 424.46 494.72 424.46ZM493.6 442.348V428.972C493.6 428.62 493.92 428.268 494.304 428.268H495.264C495.616 428.268 495.968 428.62 495.968 428.972V442.348C495.968 442.732 495.616 443.052 495.264 443.052H494.304C493.92 443.052 493.6 442.732 493.6 442.348ZM503.919 442.348V430.316H501.551C501.167 430.316 500.847 429.996 500.847 429.612V428.972C500.847 428.556 501.167 428.268 501.551 428.268H503.919V425.932C503.919 422.252 505.647 420.332 508.847 420.332C510.863 420.332 512.239 421.228 512.911 421.868C513.135 422.092 513.199 422.476 513.039 422.7L512.431 423.468C512.175 423.82 511.919 423.788 511.503 423.5C510.703 422.924 510.031 422.476 508.783 422.476C507.087 422.476 506.287 423.724 506.287 425.932V428.268H510.671C511.055 428.268 511.375 428.556 511.375 428.972V429.612C511.375 429.996 511.055 430.316 510.671 430.316H506.287V442.348C506.287 442.732 505.967 443.052 505.583 443.052H504.623C504.239 443.052 503.919 442.732 503.919 442.348ZM514.779 435.66C514.779 431.5 517.467 427.948 521.947 427.948C525.819 427.948 528.635 430.796 528.635 434.668C528.635 434.924 528.603 435.308 528.571 435.564C528.539 435.948 528.219 436.204 527.899 436.204H517.147C517.211 438.668 519.291 441.26 521.979 441.26C523.931 441.26 525.147 440.588 525.979 440.044C526.491 439.692 526.715 439.564 527.099 440.14L527.483 440.684C527.771 441.132 527.899 441.292 527.355 441.708C526.459 442.412 524.507 443.404 521.947 443.404C517.467 443.404 514.779 439.884 514.779 435.66ZM517.179 434.316H526.267C526.203 432.14 524.475 430.092 521.947 430.092C519.451 430.092 517.467 432.012 517.179 434.316ZM544.527 424.46C543.567 424.46 542.799 423.66 542.799 422.732C542.799 421.708 543.567 420.94 544.527 420.94C545.519 420.94 546.287 421.708 546.287 422.732C546.287 423.66 545.519 424.46 544.527 424.46ZM543.407 442.348V428.972C543.407 428.62 543.727 428.268 544.111 428.268H545.071C545.423 428.268 545.775 428.62 545.775 428.972V442.348C545.775 442.732 545.423 443.052 545.071 443.052H544.111C543.727 443.052 543.407 442.732 543.407 442.348ZM552.382 442.348V428.972C552.382 428.62 552.702 428.268 553.086 428.268H553.598C553.918 428.268 554.11 428.396 554.174 428.716L554.494 429.836C554.494 429.836 556.03 427.948 559.07 427.948C561.278 427.948 562.462 428.748 563.422 430.284C563.614 430.156 565.726 427.948 568.702 427.948C572.99 427.948 574.014 430.732 574.014 434.54V442.348C574.014 442.732 573.694 443.052 573.31 443.052H572.35C571.966 443.052 571.646 442.732 571.646 442.348V434.54C571.646 431.788 570.75 430.092 568.51 430.092C566.11 430.092 564.766 431.66 564.222 432.108C564.35 432.748 564.414 433.772 564.414 434.54V442.348C564.414 442.732 564.094 443.052 563.71 443.052H562.75C562.398 443.052 562.046 442.732 562.046 442.348V434.54C562.046 431.724 561.118 430.092 558.718 430.092C556.094 430.092 554.75 432.14 554.75 432.14V442.348C554.75 442.732 554.398 443.052 554.046 443.052H553.086C552.702 443.052 552.382 442.732 552.382 442.348ZM582.786 442.188V449.964C582.786 450.348 582.434 450.668 582.082 450.668H581.154C580.77 450.668 580.45 450.348 580.45 449.964V428.972C580.45 428.62 580.77 428.268 581.154 428.268H581.698C582.05 428.268 582.146 428.364 582.306 428.748L582.53 429.452C582.53 429.452 584.322 427.948 586.978 427.948C591.01 427.948 593.858 431.436 593.858 435.66C593.858 439.98 590.946 443.404 586.882 443.404C584.418 443.404 582.786 442.188 582.786 442.188ZM582.786 439.98C582.786 439.98 584.482 441.26 586.53 441.26C589.378 441.26 591.458 438.86 591.458 435.628C591.458 432.748 589.666 430.092 586.69 430.092C584.322 430.092 582.786 431.884 582.786 431.884V439.98ZM599.519 442.348V428.972C599.519 428.62 599.839 428.268 600.223 428.268H600.735C601.023 428.268 601.279 428.428 601.375 428.78L601.631 429.836C601.631 429.836 603.103 427.948 606.175 427.948C607.295 427.948 609.119 428.108 608.767 429.132L608.351 430.284C608.191 430.764 607.839 430.796 607.487 430.636C607.135 430.476 606.591 430.22 605.887 430.22C603.039 430.22 601.887 432.108 601.887 432.108V442.348C601.887 442.732 601.535 443.052 601.183 443.052H600.223C599.839 443.052 599.519 442.732 599.519 442.348ZM612.034 435.628C612.034 431.468 615.362 427.948 619.458 427.948C623.554 427.948 626.882 431.468 626.882 435.628C626.882 439.852 623.554 443.404 619.458 443.404C615.362 443.404 612.034 439.852 612.034 435.628ZM614.37 435.628C614.37 438.7 616.546 441.26 619.458 441.26C622.37 441.26 624.514 438.7 624.514 435.628C624.514 432.62 622.37 430.092 619.458 430.092C616.546 430.092 614.37 432.62 614.37 435.628ZM636.701 443.02L630.461 429.1C630.237 428.652 630.461 428.268 631.005 428.268H632.125C632.477 428.268 632.701 428.428 632.797 428.684L637.373 439.564H637.437L642.301 428.684C642.397 428.428 642.621 428.268 642.877 428.268H643.901C644.477 428.268 644.669 428.652 644.477 429.1L638.109 443.02C638.045 443.212 637.853 443.404 637.501 443.404H637.309C636.989 443.404 636.765 443.212 636.701 443.02ZM648.11 435.66C648.11 431.5 650.798 427.948 655.278 427.948C659.15 427.948 661.966 430.796 661.966 434.668C661.966 434.924 661.934 435.308 661.902 435.564C661.87 435.948 661.55 436.204 661.23 436.204H650.478C650.542 438.668 652.622 441.26 655.31 441.26C657.262 441.26 658.478 440.588 659.31 440.044C659.822 439.692 660.046 439.564 660.43 440.14L660.814 440.684C661.102 441.132 661.23 441.292 660.686 441.708C659.79 442.412 657.838 443.404 655.278 443.404C650.798 443.404 648.11 439.884 648.11 435.66ZM650.51 434.316H659.598C659.534 432.14 657.806 430.092 655.278 430.092C652.782 430.092 650.798 432.012 650.51 434.316ZM667.45 442.348V428.972C667.45 428.62 667.77 428.268 668.154 428.268H668.666C668.986 428.268 669.178 428.396 669.242 428.716L669.562 429.836C669.562 429.836 671.098 427.948 674.138 427.948C676.346 427.948 677.53 428.748 678.49 430.284C678.682 430.156 680.794 427.948 683.77 427.948C688.058 427.948 689.082 430.732 689.082 434.54V442.348C689.082 442.732 688.762 443.052 688.378 443.052H687.418C687.034 443.052 686.714 442.732 686.714 442.348V434.54C686.714 431.788 685.818 430.092 683.578 430.092C681.178 430.092 679.834 431.66 679.29 432.108C679.418 432.748 679.482 433.772 679.482 434.54V442.348C679.482 442.732 679.162 443.052 678.778 443.052H677.818C677.466 443.052 677.114 442.732 677.114 442.348V434.54C677.114 431.724 676.186 430.092 673.786 430.092C671.162 430.092 669.818 432.14 669.818 432.14V442.348C669.818 442.732 669.466 443.052 669.114 443.052H668.154C667.77 443.052 667.45 442.732 667.45 442.348ZM694.591 435.66C694.591 431.5 697.279 427.948 701.759 427.948C705.631 427.948 708.447 430.796 708.447 434.668C708.447 434.924 708.415 435.308 708.383 435.564C708.351 435.948 708.031 436.204 707.711 436.204H696.959C697.023 438.668 699.103 441.26 701.791 441.26C703.743 441.26 704.959 440.588 705.791 440.044C706.303 439.692 706.527 439.564 706.911 440.14L707.295 440.684C707.583 441.132 707.711 441.292 707.167 441.708C706.271 442.412 704.319 443.404 701.759 443.404C697.279 443.404 694.591 439.884 694.591 435.66ZM696.991 434.316H706.079C706.015 432.14 704.287 430.092 701.759 430.092C699.263 430.092 697.279 432.012 696.991 434.316ZM713.932 442.348V428.972C713.932 428.62 714.252 428.268 714.636 428.268H715.148C715.468 428.268 715.66 428.396 715.724 428.716L716.044 429.836C716.044 429.836 717.932 427.948 721.004 427.948C725.292 427.948 726.348 430.732 726.348 434.54V442.348C726.348 442.732 725.996 443.052 725.644 443.052H724.684C724.3 443.052 723.98 442.732 723.98 442.348V434.22C723.98 431.404 723.02 430.092 720.844 430.092C718.06 430.092 716.3 432.14 716.3 432.14V442.348C716.3 442.732 715.948 443.052 715.596 443.052H714.636C714.252 443.052 713.932 442.732 713.932 442.348ZM733.586 430.316H731.634C731.186 430.316 730.898 429.996 730.898 429.612V428.972C730.898 428.556 731.186 428.268 731.634 428.268H733.586V424.172C733.586 423.788 733.938 423.5 734.29 423.468L735.282 423.404C735.666 423.372 735.954 423.724 735.954 424.108V428.268H740.306C740.722 428.268 741.042 428.556 741.042 428.972V429.612C741.042 429.996 740.722 430.316 740.306 430.316H735.954V439.148C735.954 440.684 736.434 441.26 737.266 441.26C738.642 441.26 739.57 440.684 740.178 440.3C740.754 439.948 740.946 440.236 741.106 440.588L741.394 441.26C741.586 441.74 741.522 441.964 741.138 442.22C740.498 442.668 738.962 443.404 736.978 443.404C734.162 443.404 733.586 441.612 733.586 439.308V430.316ZM750.478 443.404C748.014 443.404 746.35 442.316 745.582 441.612C745.422 441.452 745.358 441.228 745.486 440.972L745.934 440.14C746.126 439.788 746.382 439.66 746.798 439.948C747.31 440.332 748.59 441.26 750.478 441.26C751.982 441.26 753.006 440.556 753.006 439.404C753.006 437.996 751.854 437.42 749.71 436.364C747.758 435.404 745.518 434.348 745.518 431.82C745.518 430.284 746.67 427.948 750.094 427.948C752.014 427.948 753.614 428.588 754.318 429.1C754.638 429.356 754.702 429.676 754.478 430.092L754.158 430.7C753.934 431.116 753.454 431.148 753.134 430.956C752.494 430.572 751.47 430.092 750.094 430.092C748.462 430.092 747.918 431.02 747.918 431.724C747.918 433.036 748.942 433.516 750.734 434.348C753.294 435.532 755.502 436.492 755.502 439.18C755.502 441.516 753.486 443.404 750.478 443.404ZM771.051 442.348V430.316H768.683C768.299 430.316 767.979 429.996 767.979 429.612V428.972C767.979 428.556 768.299 428.268 768.683 428.268H771.051V425.932C771.051 422.252 772.779 420.332 775.979 420.332C777.995 420.332 779.371 421.228 780.043 421.868C780.267 422.092 780.331 422.476 780.171 422.7L779.563 423.468C779.307 423.82 779.051 423.788 778.635 423.5C777.835 422.924 777.163 422.476 775.915 422.476C774.219 422.476 773.419 423.724 773.419 425.932V428.268H777.803C778.187 428.268 778.507 428.556 778.507 428.972V429.612C778.507 429.996 778.187 430.316 777.803 430.316H773.419V442.348C773.419 442.732 773.099 443.052 772.715 443.052H771.755C771.371 443.052 771.051 442.732 771.051 442.348ZM781.878 435.628C781.878 431.468 785.206 427.948 789.302 427.948C793.398 427.948 796.726 431.468 796.726 435.628C796.726 439.852 793.398 443.404 789.302 443.404C785.206 443.404 781.878 439.852 781.878 435.628ZM784.214 435.628C784.214 438.7 786.39 441.26 789.302 441.26C792.214 441.26 794.358 438.7 794.358 435.628C794.358 432.62 792.214 430.092 789.302 430.092C786.39 430.092 784.214 432.62 784.214 435.628ZM802.344 442.348V428.972C802.344 428.62 802.664 428.268 803.048 428.268H803.56C803.848 428.268 804.104 428.428 804.2 428.78L804.456 429.836C804.456 429.836 805.928 427.948 809 427.948C810.12 427.948 811.944 428.108 811.592 429.132L811.176 430.284C811.016 430.764 810.664 430.796 810.312 430.636C809.96 430.476 809.416 430.22 808.712 430.22C805.864 430.22 804.712 432.108 804.712 432.108V442.348C804.712 442.732 804.36 443.052 804.008 443.052H803.048C802.664 443.052 802.344 442.732 802.344 442.348ZM823.705 438.572C823.705 435.756 825.817 433.676 829.625 433.676C831.193 433.676 832.793 434.156 832.793 434.156C832.825 431.436 832.473 430.092 830.361 430.092C828.345 430.092 826.649 430.732 825.977 430.956C825.593 431.116 825.401 430.924 825.273 430.572L824.953 429.708C824.825 429.26 825.049 429.068 825.401 428.908C826.137 428.588 828.057 427.948 830.489 427.948C834.265 427.948 835.065 429.804 835.065 434.156V442.348C835.065 442.732 834.745 443.052 834.361 443.052H833.753C833.369 443.052 833.241 442.828 833.145 442.508L832.857 441.516C832.089 442.284 830.553 443.404 828.281 443.404C825.689 443.404 823.705 441.548 823.705 438.572ZM826.041 438.572C826.041 440.076 827.065 441.26 828.697 441.26C830.521 441.26 832.121 440.236 832.761 439.276V436.268C832.281 436.012 831.097 435.692 829.625 435.692C827.577 435.692 826.041 436.684 826.041 438.572ZM842.639 424.46C841.679 424.46 840.911 423.66 840.911 422.732C840.911 421.708 841.679 420.94 842.639 420.94C843.631 420.94 844.399 421.708 844.399 422.732C844.399 423.66 843.631 424.46 842.639 424.46ZM841.519 442.348V428.972C841.519 428.62 841.839 428.268 842.223 428.268H843.183C843.535 428.268 843.887 428.62 843.887 428.972V442.348C843.887 442.732 843.535 443.052 843.183 443.052H842.223C841.839 443.052 841.519 442.732 841.519 442.348ZM850.494 442.348V428.972C850.494 428.62 850.814 428.268 851.198 428.268H851.71C851.998 428.268 852.254 428.428 852.35 428.78L852.606 429.836C852.606 429.836 854.078 427.948 857.15 427.948C858.27 427.948 860.094 428.108 859.742 429.132L859.326 430.284C859.166 430.764 858.814 430.796 858.462 430.636C858.11 430.476 857.566 430.22 856.862 430.22C854.014 430.22 852.862 432.108 852.862 432.108V442.348C852.862 442.732 852.51 443.052 852.158 443.052H851.198C850.814 443.052 850.494 442.732 850.494 442.348ZM864.598 442.348V421.356C864.598 421.004 864.918 420.652 865.302 420.652H866.262C866.614 420.652 866.966 421.004 866.966 421.356V442.348C866.966 442.732 866.614 443.052 866.262 443.052H865.302C864.918 443.052 864.598 442.732 864.598 442.348ZM874.845 424.46C873.885 424.46 873.117 423.66 873.117 422.732C873.117 421.708 873.885 420.94 874.845 420.94C875.837 420.94 876.605 421.708 876.605 422.732C876.605 423.66 875.837 424.46 874.845 424.46ZM873.725 442.348V428.972C873.725 428.62 874.045 428.268 874.429 428.268H875.389C875.741 428.268 876.093 428.62 876.093 428.972V442.348C876.093 442.732 875.741 443.052 875.389 443.052H874.429C874.045 443.052 873.725 442.732 873.725 442.348ZM882.7 442.348V428.972C882.7 428.62 883.02 428.268 883.404 428.268H883.916C884.236 428.268 884.428 428.396 884.492 428.716L884.812 429.836C884.812 429.836 886.7 427.948 889.772 427.948C894.06 427.948 895.116 430.732 895.116 434.54V442.348C895.116 442.732 894.764 443.052 894.412 443.052H893.452C893.068 443.052 892.748 442.732 892.748 442.348V434.22C892.748 431.404 891.788 430.092 889.612 430.092C886.828 430.092 885.068 432.14 885.068 432.14V442.348C885.068 442.732 884.716 443.052 884.364 443.052H883.404C883.02 443.052 882.7 442.732 882.7 442.348ZM900.622 435.66C900.622 431.5 903.31 427.948 907.79 427.948C911.662 427.948 914.478 430.796 914.478 434.668C914.478 434.924 914.446 435.308 914.414 435.564C914.382 435.948 914.062 436.204 913.742 436.204H902.99C903.054 438.668 905.134 441.26 907.822 441.26C909.774 441.26 910.99 440.588 911.822 440.044C912.334 439.692 912.558 439.564 912.942 440.14L913.326 440.684C913.614 441.132 913.742 441.292 913.198 441.708C912.302 442.412 910.35 443.404 907.79 443.404C903.31 443.404 900.622 439.884 900.622 435.66ZM903.022 434.316H912.11C912.046 432.14 910.318 430.092 907.79 430.092C905.294 430.092 903.31 432.012 903.022 434.316ZM924.091 443.404C921.627 443.404 919.963 442.316 919.195 441.612C919.035 441.452 918.971 441.228 919.099 440.972L919.547 440.14C919.739 439.788 919.995 439.66 920.411 439.948C920.923 440.332 922.203 441.26 924.091 441.26C925.595 441.26 926.619 440.556 926.619 439.404C926.619 437.996 925.467 437.42 923.323 436.364C921.371 435.404 919.131 434.348 919.131 431.82C919.131 430.284 920.283 427.948 923.707 427.948C925.627 427.948 927.227 428.588 927.931 429.1C928.251 429.356 928.315 429.676 928.091 430.092L927.771 430.7C927.547 431.116 927.067 431.148 926.747 430.956C926.107 430.572 925.083 430.092 923.707 430.092C922.075 430.092 921.531 431.02 921.531 431.724C921.531 433.036 922.555 433.516 924.347 434.348C926.907 435.532 929.115 436.492 929.115 439.18C929.115 441.516 927.099 443.404 924.091 443.404ZM935.683 424.46C934.723 424.46 933.955 423.66 933.955 422.732C933.955 421.708 934.723 420.94 935.683 420.94C936.675 420.94 937.443 421.708 937.443 422.732C937.443 423.66 936.675 424.46 935.683 424.46ZM934.563 442.348V428.972C934.563 428.62 934.883 428.268 935.267 428.268H936.227C936.579 428.268 936.931 428.62 936.931 428.972V442.348C936.931 442.732 936.579 443.052 936.227 443.052H935.267C934.883 443.052 934.563 442.732 934.563 442.348ZM943.538 442.348V428.972C943.538 428.62 943.858 428.268 944.242 428.268H944.754C945.074 428.268 945.266 428.396 945.33 428.716L945.65 429.836C945.65 429.836 947.186 427.948 950.226 427.948C952.434 427.948 953.618 428.748 954.578 430.284C954.77 430.156 956.882 427.948 959.858 427.948C964.146 427.948 965.17 430.732 965.17 434.54V442.348C965.17 442.732 964.85 443.052 964.466 443.052H963.506C963.122 443.052 962.802 442.732 962.802 442.348V434.54C962.802 431.788 961.906 430.092 959.666 430.092C957.266 430.092 955.922 431.66 955.378 432.108C955.506 432.748 955.57 433.772 955.57 434.54V442.348C955.57 442.732 955.25 443.052 954.866 443.052H953.906C953.554 443.052 953.202 442.732 953.202 442.348V434.54C953.202 431.724 952.274 430.092 949.874 430.092C947.25 430.092 945.906 432.14 945.906 432.14V442.348C945.906 442.732 945.554 443.052 945.202 443.052H944.242C943.858 443.052 943.538 442.732 943.538 442.348ZM970.903 441.26C970.903 440.108 971.831 439.18 972.983 439.18C974.167 439.18 975.095 440.108 975.095 441.26C975.095 442.412 974.167 443.404 972.983 443.404C971.831 443.404 970.903 442.412 970.903 441.26ZM979.836 438.572C979.836 435.756 981.948 433.676 985.756 433.676C987.324 433.676 988.924 434.156 988.924 434.156C988.956 431.436 988.604 430.092 986.492 430.092C984.476 430.092 982.78 430.732 982.108 430.956C981.724 431.116 981.532 430.924 981.404 430.572L981.084 429.708C980.956 429.26 981.18 429.068 981.532 428.908C982.268 428.588 984.188 427.948 986.62 427.948C990.396 427.948 991.196 429.804 991.196 434.156V442.348C991.196 442.732 990.876 443.052 990.492 443.052H989.884C989.5 443.052 989.372 442.828 989.276 442.508L988.988 441.516C988.22 442.284 986.684 443.404 984.412 443.404C981.82 443.404 979.836 441.548 979.836 438.572ZM982.172 438.572C982.172 440.076 983.196 441.26 984.828 441.26C986.652 441.26 988.252 440.236 988.892 439.276V436.268C988.412 436.012 987.228 435.692 985.756 435.692C983.708 435.692 982.172 436.684 982.172 438.572ZM996.722 435.66C996.722 431.5 999.41 427.948 1003.89 427.948C1007.76 427.948 1010.58 430.796 1010.58 434.668C1010.58 434.924 1010.55 435.308 1010.51 435.564C1010.48 435.948 1010.16 436.204 1009.84 436.204H999.09C999.154 438.668 1001.23 441.26 1003.92 441.26C1005.87 441.26 1007.09 440.588 1007.92 440.044C1008.43 439.692 1008.66 439.564 1009.04 440.14L1009.43 440.684C1009.71 441.132 1009.84 441.292 1009.3 441.708C1008.4 442.412 1006.45 443.404 1003.89 443.404C999.41 443.404 996.722 439.884 996.722 435.66ZM999.122 434.316H1008.21C1008.15 432.14 1006.42 430.092 1003.89 430.092C1001.39 430.092 999.41 432.012 999.122 434.316ZM1016.06 442.348V428.972C1016.06 428.62 1016.38 428.268 1016.77 428.268H1017.28C1017.57 428.268 1017.82 428.428 1017.92 428.78L1018.18 429.836C1018.18 429.836 1019.65 427.948 1022.72 427.948C1023.84 427.948 1025.66 428.108 1025.31 429.132L1024.9 430.284C1024.74 430.764 1024.38 430.796 1024.03 430.636C1023.68 430.476 1023.14 430.22 1022.43 430.22C1019.58 430.22 1018.43 432.108 1018.43 432.108V442.348C1018.43 442.732 1018.08 443.052 1017.73 443.052H1016.77C1016.38 443.052 1016.06 442.732 1016.06 442.348ZM1028.58 435.628C1028.58 431.468 1031.91 427.948 1036 427.948C1040.1 427.948 1043.43 431.468 1043.43 435.628C1043.43 439.852 1040.1 443.404 1036 443.404C1031.91 443.404 1028.58 439.852 1028.58 435.628ZM1030.91 435.628C1030.91 438.7 1033.09 441.26 1036 441.26C1038.91 441.26 1041.06 438.7 1041.06 435.628C1041.06 432.62 1038.91 430.092 1036 430.092C1033.09 430.092 1030.91 432.62 1030.91 435.628Z" fill="black"/>
<path d="M160.901 380.447C159.911 380.447 159.383 379.589 159.779 378.731L180.437 334.313C180.635 333.917 181.097 333.587 181.559 333.587H182.219C182.681 333.587 183.143 333.917 183.341 334.313L203.999 378.731C204.395 379.589 203.867 380.447 202.877 380.447H195.551C194.363 380.447 193.835 380.051 193.241 378.797L190.865 373.583H172.913L170.537 378.863C170.207 379.655 169.481 380.447 168.161 380.447H160.901ZM176.873 364.607H186.905L181.889 353.717H181.823L176.873 364.607ZM210.668 378.995V351.407C210.668 350.549 211.328 349.955 212.12 349.955H219.248C220.04 349.955 220.7 350.549 220.7 351.407V378.995C220.7 379.787 220.04 380.447 219.248 380.447H212.12C211.328 380.447 210.668 379.787 210.668 378.995ZM215.618 345.731C212.45 345.731 209.942 343.157 209.942 340.055C209.942 336.887 212.45 334.247 215.618 334.247C218.786 334.247 221.36 336.887 221.36 340.055C221.36 343.157 218.786 345.731 215.618 345.731ZM231.37 378.995V351.407C231.37 350.549 232.03 349.955 232.822 349.955H235.99C236.782 349.955 237.178 350.351 237.376 350.879L238.762 354.245C240.082 351.803 242.392 349.295 246.352 349.295C249.124 349.295 251.17 350.021 252.292 350.879C252.82 351.275 252.82 351.935 252.49 352.529L249.454 358.535C249.124 359.129 248.596 359.591 247.738 359.261C247.21 359.063 246.088 358.799 245.428 358.799C243.118 358.799 241.402 360.449 241.402 363.023V378.995C241.402 379.919 240.874 380.447 239.752 380.447H232.822C232.03 380.447 231.37 379.787 231.37 378.995ZM259.937 378.995V335.699C259.937 334.973 260.597 334.247 261.389 334.247H268.517C269.309 334.247 269.969 334.973 269.969 335.699V378.995C269.969 379.787 269.309 380.447 268.517 380.447H261.389C260.597 380.447 259.937 379.787 259.937 378.995ZM280.702 378.995V351.407C280.702 350.549 281.362 349.955 282.154 349.955H289.282C290.074 349.955 290.734 350.549 290.734 351.407V378.995C290.734 379.787 290.074 380.447 289.282 380.447H282.154C281.362 380.447 280.702 379.787 280.702 378.995ZM285.652 345.731C282.484 345.731 279.976 343.157 279.976 340.055C279.976 336.887 282.484 334.247 285.652 334.247C288.82 334.247 291.394 336.887 291.394 340.055C291.394 343.157 288.82 345.731 285.652 345.731ZM301.405 378.995V351.407C301.405 350.549 302.065 349.955 302.857 349.955H305.827C306.289 349.955 306.883 350.285 307.213 350.879L308.335 353.915C309.985 352.067 312.295 349.295 317.839 349.295C327.343 349.295 330.577 356.027 330.577 364.409V378.995C330.577 379.787 329.917 380.447 329.191 380.447H321.997C321.139 380.447 320.545 379.787 320.545 378.995V364.277C320.545 361.373 319.555 358.667 316.123 358.667C313.087 358.667 311.503 360.779 311.503 363.881V378.995C311.503 379.655 311.173 380.447 310.117 380.447H302.857C302.065 380.447 301.405 379.787 301.405 378.995ZM339.211 365.201C339.211 356.621 346.009 349.295 355.051 349.295C362.773 349.295 369.505 355.169 369.505 363.551C369.505 364.013 369.439 365.069 369.373 365.531C369.307 366.323 368.581 366.851 367.921 366.851H349.111C349.111 369.227 351.289 372.131 355.447 372.131C357.427 372.131 359.935 371.141 361.255 370.217C361.915 369.623 362.707 369.623 363.169 370.217L366.535 374.639C366.997 375.233 367.129 376.157 366.469 376.817C363.829 379.523 360.001 381.173 355.183 381.173C346.075 381.173 339.211 374.639 339.211 365.201ZM350.233 361.043H359.209C359.077 358.997 357.361 357.281 354.787 357.281C352.279 357.281 350.629 358.997 350.233 361.043ZM391.235 381.107C382.655 381.107 377.903 377.543 376.385 376.025C375.857 375.497 375.659 374.903 376.121 374.045L379.157 368.699C379.685 367.841 380.741 367.841 381.401 368.303C383.249 369.557 386.615 371.933 390.773 371.933C393.413 371.933 395.327 370.283 395.327 367.973C395.327 365.201 392.885 363.419 388.529 361.307C382.127 358.205 375.725 354.641 375.725 346.721C375.725 340.187 380.807 333.587 390.971 333.587C397.835 333.587 403.115 337.085 405.095 338.537C405.887 338.999 405.755 340.187 405.491 340.649L402.125 345.731C401.663 346.457 400.541 346.985 399.221 346.193C397.703 345.137 393.809 342.629 390.311 342.629C387.539 342.629 386.285 344.345 386.285 346.259C386.285 348.437 388.859 350.153 393.479 352.397C399.287 355.235 406.811 358.469 406.811 367.445C406.811 374.243 400.937 381.107 391.235 381.107ZM415.719 378.995V351.407C415.719 350.549 416.379 349.955 417.171 349.955H424.299C425.091 349.955 425.751 350.549 425.751 351.407V378.995C425.751 379.787 425.091 380.447 424.299 380.447H417.171C416.379 380.447 415.719 379.787 415.719 378.995ZM420.669 345.731C417.501 345.731 414.993 343.157 414.993 340.055C414.993 336.887 417.501 334.247 420.669 334.247C423.837 334.247 426.411 336.887 426.411 340.055C426.411 343.157 423.837 345.731 420.669 345.731ZM436.421 378.995V351.407C436.421 350.549 437.015 349.955 437.873 349.955H440.777C441.305 349.955 441.833 350.285 442.031 350.813L443.285 353.915C445.265 351.935 447.773 349.295 452.723 349.295C456.947 349.295 458.993 350.879 461.765 353.915C463.349 352.199 466.187 349.295 471.401 349.295C480.773 349.295 483.875 356.093 483.875 364.739V378.995C483.875 379.787 483.215 380.447 482.423 380.447H475.295C474.437 380.447 473.843 379.787 473.843 378.995V364.277C473.843 361.175 472.919 358.667 469.355 358.667C466.715 358.667 465.065 360.779 465.065 363.749V378.995C465.065 379.787 464.537 380.447 463.679 380.447H456.485C455.693 380.447 455.033 379.787 455.033 378.995V364.277C455.033 361.175 454.505 358.667 451.139 358.667C448.037 358.667 446.453 360.779 446.453 363.881V378.995C446.453 379.787 445.727 380.447 445.001 380.447H437.873C437.015 380.447 436.421 379.787 436.421 378.995ZM514.922 379.193V335.501C514.922 334.841 515.45 334.247 516.176 334.247H543.5C544.226 334.247 544.754 334.841 544.754 335.501V342.695C544.754 343.355 544.226 343.949 543.5 343.949H525.218V352.133H540.266C540.926 352.133 541.52 352.727 541.52 353.387V360.581C541.52 361.307 540.926 361.835 540.266 361.835H525.218V370.745H543.5C544.226 370.745 544.754 371.339 544.754 371.999V379.193C544.754 379.853 544.226 380.447 543.5 380.447H516.176C515.45 380.447 514.922 379.853 514.922 379.193ZM553.893 378.995V351.407C553.893 350.549 554.553 349.955 555.345 349.955H558.315C558.777 349.955 559.371 350.285 559.701 350.879L560.823 353.915C562.473 352.067 564.783 349.295 570.327 349.295C579.831 349.295 583.065 356.027 583.065 364.409V378.995C583.065 379.787 582.405 380.447 581.679 380.447H574.485C573.627 380.447 573.033 379.787 573.033 378.995V364.277C573.033 361.373 572.043 358.667 568.611 358.667C565.575 358.667 563.991 360.779 563.991 363.881V378.995C563.991 379.655 563.661 380.447 562.605 380.447H555.345C554.553 380.447 553.893 379.787 553.893 378.995ZM593.482 378.995V335.699C593.482 334.973 594.142 334.247 594.934 334.247H602.062C602.854 334.247 603.514 334.973 603.514 335.699V351.473C605.626 350.021 607.738 349.295 609.982 349.295C619.552 349.295 622.588 356.291 622.588 364.739V378.995C622.588 379.787 621.862 380.447 621.136 380.447H614.008C613.15 380.447 612.556 379.787 612.556 378.995V364.607C612.556 361.175 611.302 358.667 608.002 358.667C605.56 358.667 603.514 359.987 603.514 364.607V378.995C603.514 379.985 603.184 380.447 601.864 380.447H594.934C594.142 380.447 593.482 379.787 593.482 378.995ZM631.157 371.141C631.157 365.267 635.447 360.977 642.377 360.977C645.809 360.977 648.383 362.297 648.383 362.297C648.383 359.327 647.723 357.611 644.159 357.611C642.047 357.611 638.483 358.073 636.503 358.667C635.315 359.063 634.787 358.205 634.655 357.083L633.929 352.397C633.731 351.077 634.457 350.483 635.117 350.285C635.843 350.021 641.189 349.295 645.281 349.295C654.719 349.295 658.019 353.123 658.019 362.165V378.995C658.019 379.787 657.293 380.447 656.567 380.447H653.333C652.871 380.447 652.343 380.315 651.947 379.457L650.957 377.411C649.109 378.995 646.535 381.173 641.717 381.173C635.711 381.173 631.157 377.213 631.157 371.141ZM640.991 370.415C640.991 372.263 642.509 373.781 644.357 373.781C646.205 373.781 647.789 372.263 647.789 370.415C647.789 368.633 646.205 367.049 644.357 367.049C642.509 367.049 640.991 368.633 640.991 370.415ZM668.53 378.995V351.407C668.53 350.549 669.19 349.955 669.982 349.955H672.952C673.414 349.955 674.008 350.285 674.338 350.879L675.46 353.915C677.11 352.067 679.42 349.295 684.964 349.295C694.468 349.295 697.702 356.027 697.702 364.409V378.995C697.702 379.787 697.042 380.447 696.316 380.447H689.122C688.264 380.447 687.67 379.787 687.67 378.995V364.277C687.67 361.373 686.68 358.667 683.248 358.667C680.212 358.667 678.628 360.779 678.628 363.881V378.995C678.628 379.655 678.298 380.447 677.242 380.447H669.982C669.19 380.447 668.53 379.787 668.53 378.995ZM706.27 365.201C706.27 356.225 713.728 349.295 722.44 349.295C727.258 349.295 730.954 351.209 733.858 354.641C734.452 355.367 734.188 356.225 733.462 356.819L729.172 360.977C728.842 361.307 728.05 361.373 727.456 360.845C726.202 359.723 724.684 358.667 722.77 358.667C719.272 358.667 716.302 361.769 716.302 365.201C716.302 368.897 719.14 371.735 722.638 371.735C725.476 371.735 726.796 370.547 728.116 369.227C728.644 368.567 729.436 368.435 729.832 368.963L734.122 372.659C734.782 373.319 735.178 374.045 734.65 374.837C731.812 379.061 727.852 381.173 722.374 381.173C713.662 381.173 706.27 374.375 706.27 365.201ZM740.896 365.201C740.896 356.621 747.694 349.295 756.736 349.295C764.458 349.295 771.19 355.169 771.19 363.551C771.19 364.013 771.124 365.069 771.058 365.531C770.992 366.323 770.266 366.851 769.606 366.851H750.796C750.796 369.227 752.974 372.131 757.132 372.131C759.112 372.131 761.62 371.141 762.94 370.217C763.6 369.623 764.392 369.623 764.854 370.217L768.22 374.639C768.682 375.233 768.814 376.157 768.154 376.817C765.514 379.523 761.686 381.173 756.868 381.173C747.76 381.173 740.896 374.639 740.896 365.201ZM751.918 361.043H760.894C760.762 358.997 759.046 357.281 756.472 357.281C753.964 357.281 752.314 358.997 751.918 361.043ZM779.75 378.995V351.407C779.75 350.549 780.344 349.955 781.202 349.955H784.106C784.634 349.955 785.162 350.285 785.36 350.813L786.614 353.915C788.594 351.935 791.102 349.295 796.052 349.295C800.276 349.295 802.322 350.879 805.094 353.915C806.678 352.199 809.516 349.295 814.73 349.295C824.102 349.295 827.204 356.093 827.204 364.739V378.995C827.204 379.787 826.544 380.447 825.752 380.447H818.624C817.766 380.447 817.172 379.787 817.172 378.995V364.277C817.172 361.175 816.248 358.667 812.684 358.667C810.044 358.667 808.394 360.779 808.394 363.749V378.995C808.394 379.787 807.866 380.447 807.008 380.447H799.814C799.022 380.447 798.362 379.787 798.362 378.995V364.277C798.362 361.175 797.834 358.667 794.468 358.667C791.366 358.667 789.782 360.779 789.782 363.881V378.995C789.782 379.787 789.056 380.447 788.33 380.447H781.202C780.344 380.447 779.75 379.787 779.75 378.995ZM835.861 365.201C835.861 356.621 842.659 349.295 851.701 349.295C859.423 349.295 866.155 355.169 866.155 363.551C866.155 364.013 866.089 365.069 866.023 365.531C865.957 366.323 865.231 366.851 864.571 366.851H845.761C845.761 369.227 847.939 372.131 852.097 372.131C854.077 372.131 856.585 371.141 857.905 370.217C858.565 369.623 859.357 369.623 859.819 370.217L863.185 374.639C863.647 375.233 863.779 376.157 863.119 376.817C860.479 379.523 856.651 381.173 851.833 381.173C842.725 381.173 835.861 374.639 835.861 365.201ZM846.883 361.043H855.859C855.727 358.997 854.011 357.281 851.437 357.281C848.929 357.281 847.279 358.997 846.883 361.043ZM874.715 378.995V351.407C874.715 350.549 875.375 349.955 876.167 349.955H879.137C879.599 349.955 880.193 350.285 880.523 350.879L881.645 353.915C883.295 352.067 885.605 349.295 891.149 349.295C900.653 349.295 903.887 356.027 903.887 364.409V378.995C903.887 379.787 903.227 380.447 902.501 380.447H895.307C894.449 380.447 893.855 379.787 893.855 378.995V364.277C893.855 361.373 892.865 358.667 889.433 358.667C886.397 358.667 884.813 360.779 884.813 363.881V378.995C884.813 379.655 884.483 380.447 883.427 380.447H876.167C875.375 380.447 874.715 379.787 874.715 378.995ZM916.152 370.547V358.997H913.644C912.918 358.997 912.324 358.337 912.324 357.545V351.407C912.324 350.549 912.918 349.955 913.644 349.955H916.152V341.507C916.152 340.715 916.812 340.055 917.604 340.055H924.864C925.59 340.055 926.184 340.715 926.184 341.507V349.955H932.322C933.114 349.955 933.774 350.549 933.774 351.407V357.545C933.774 358.337 933.114 358.997 932.322 358.997H926.184V369.623C926.184 371.075 926.91 371.735 928.23 371.735C929.286 371.735 931.266 371.273 931.992 371.075C932.784 370.877 933.51 371.207 933.708 371.999L935.028 377.741C935.226 378.665 934.896 379.061 934.038 379.457C931.992 380.315 928.56 381.173 925.326 381.173C919.518 381.173 916.152 377.477 916.152 370.547ZM977.191 381.107C968.611 381.107 963.859 377.543 962.341 376.025C961.813 375.497 961.615 374.903 962.077 374.045L965.113 368.699C965.641 367.841 966.697 367.841 967.357 368.303C969.205 369.557 972.571 371.933 976.729 371.933C979.369 371.933 981.283 370.283 981.283 367.973C981.283 365.201 978.841 363.419 974.485 361.307C968.083 358.205 961.681 354.641 961.681 346.721C961.681 340.187 966.763 333.587 976.927 333.587C983.791 333.587 989.071 337.085 991.051 338.537C991.843 338.999 991.711 340.187 991.447 340.649L988.081 345.731C987.619 346.457 986.497 346.985 985.177 346.193C983.659 345.137 979.765 342.629 976.267 342.629C973.495 342.629 972.241 344.345 972.241 346.259C972.241 348.437 974.815 350.153 979.435 352.397C985.243 355.235 992.767 358.469 992.767 367.445C992.767 374.243 986.893 381.107 977.191 381.107ZM1001.22 366.653V351.407C1001.22 350.549 1001.88 349.955 1002.6 349.955H1009.8C1010.59 349.955 1011.25 350.549 1011.25 351.407V366.455C1011.25 369.887 1012.24 371.735 1015.34 371.735C1018.31 371.735 1019.5 369.689 1019.5 366.983V351.407C1019.5 350.153 1020.42 349.955 1021.15 349.955H1028.08C1028.87 349.955 1029.53 350.549 1029.53 351.407V378.995C1029.53 379.787 1028.87 380.447 1028.08 380.447H1025.04C1024.38 380.447 1023.86 379.919 1023.59 379.391L1022.54 376.553C1020.69 378.467 1017.45 381.173 1012.9 381.173C1003.99 381.173 1001.22 375.299 1001.22 366.653ZM1040.23 378.995V351.407C1040.23 350.549 1040.89 349.955 1041.68 349.955H1048.81C1049.6 349.955 1050.26 350.549 1050.26 351.407V378.995C1050.26 379.787 1049.6 380.447 1048.81 380.447H1041.68C1040.89 380.447 1040.23 379.787 1040.23 378.995ZM1045.18 345.731C1042.01 345.731 1039.5 343.157 1039.5 340.055C1039.5 336.887 1042.01 334.247 1045.18 334.247C1048.35 334.247 1050.92 336.887 1050.92 340.055C1050.92 343.157 1048.35 345.731 1045.18 345.731ZM1062.85 370.547V358.997H1060.34C1059.61 358.997 1059.02 358.337 1059.02 357.545V351.407C1059.02 350.549 1059.61 349.955 1060.34 349.955H1062.85V341.507C1062.85 340.715 1063.51 340.055 1064.3 340.055H1071.56C1072.29 340.055 1072.88 340.715 1072.88 341.507V349.955H1079.02C1079.81 349.955 1080.47 350.549 1080.47 351.407V357.545C1080.47 358.337 1079.81 358.997 1079.02 358.997H1072.88V369.623C1072.88 371.075 1073.61 371.735 1074.93 371.735C1075.98 371.735 1077.96 371.273 1078.69 371.075C1079.48 370.877 1080.21 371.207 1080.4 371.999L1081.72 377.741C1081.92 378.665 1081.59 379.061 1080.73 379.457C1078.69 380.315 1075.26 381.173 1072.02 381.173C1066.21 381.173 1062.85 377.477 1062.85 370.547ZM1088.36 365.201C1088.36 356.621 1095.16 349.295 1104.2 349.295C1111.92 349.295 1118.66 355.169 1118.66 363.551C1118.66 364.013 1118.59 365.069 1118.52 365.531C1118.46 366.323 1117.73 366.851 1117.07 366.851H1098.26C1098.26 369.227 1100.44 372.131 1104.6 372.131C1106.58 372.131 1109.09 371.141 1110.41 370.217C1111.07 369.623 1111.86 369.623 1112.32 370.217L1115.69 374.639C1116.15 375.233 1116.28 376.157 1115.62 376.817C1112.98 379.523 1109.15 381.173 1104.33 381.173C1095.23 381.173 1088.36 374.639 1088.36 365.201ZM1099.38 361.043H1108.36C1108.23 358.997 1106.51 357.281 1103.94 357.281C1101.43 357.281 1099.78 358.997 1099.38 361.043Z" fill="#21204A"/>
<path d="M586.209 272H524.58L496.135 243.556L538.802 144L605.172 229.333L586.209 272Z" fill="white" fill-opacity="0.55"/>
<path d="M505.617 148.741L462.95 243.556L486.654 272H586.209L605.172 229.333L505.617 148.741Z" fill="white" fill-opacity="0.49"/>
<path d="M608.92 271.5C607.27 271.5 606.39 270.07 607.05 268.64L641.48 194.61C641.81 193.95 642.58 193.4 643.35 193.4H644.45C645.22 193.4 645.99 193.95 646.32 194.61L680.75 268.64C681.41 270.07 680.53 271.5 678.88 271.5H666.67C664.69 271.5 663.81 270.84 662.82 268.75L658.86 260.06H628.94L624.98 268.86C624.43 270.18 623.22 271.5 621.02 271.5H608.92ZM635.54 245.1H652.26L643.9 226.95H643.79L635.54 245.1ZM694.931 269.41V196.59C694.931 195.49 695.811 194.5 697.021 194.5H742.561C743.771 194.5 744.651 195.49 744.651 196.59V208.58C744.651 209.68 743.771 210.67 742.561 210.67H712.091V224.31H737.171C738.271 224.31 739.261 225.3 739.261 226.4V238.39C739.261 239.6 738.271 240.48 737.171 240.48H712.091V255.33H742.561C743.771 255.33 744.651 256.32 744.651 257.42V269.41C744.651 270.51 743.771 271.5 742.561 271.5H697.021C695.811 271.5 694.931 270.51 694.931 269.41ZM785.915 272.6C771.615 272.6 763.695 266.66 761.165 264.13C760.285 263.25 759.955 262.26 760.725 260.83L765.785 251.92C766.665 250.49 768.425 250.49 769.525 251.26C772.605 253.35 778.215 257.31 785.145 257.31C789.545 257.31 792.735 254.56 792.735 250.71C792.735 246.09 788.665 243.12 781.405 239.6C770.735 234.43 760.065 228.49 760.065 215.29C760.065 204.4 768.535 193.4 785.475 193.4C796.915 193.4 805.715 199.23 809.015 201.65C810.335 202.42 810.115 204.4 809.675 205.17L804.065 213.64C803.295 214.85 801.425 215.73 799.225 214.41C796.695 212.65 790.205 208.47 784.375 208.47C779.755 208.47 777.665 211.33 777.665 214.52C777.665 218.15 781.955 221.01 789.655 224.75C799.335 229.48 811.875 234.87 811.875 249.83C811.875 261.16 802.085 272.6 785.915 272.6Z" fill="#21204A"/>
</svg>
